<?xml version="1.0" standalone="no"?>
<!DOCTYPE svg PUBLIC "-//W3C//DTD SVG 20010904//EN"
 "http://www.w3.org/TR/2001/REC-SVG-20010904/DTD/svg10.dtd">
<svg version="1.0" xmlns="http://www.w3.org/2000/svg"
 width="200.000000pt" height="200.000000pt" viewBox="0 0 200.000000 200.000000"
 preserveAspectRatio="xMidYMid meet">
<metadata>
Created by potrace 1.14, written by Peter Selinger 2001-2017
</metadata>
<g transform="translate(0.000000,200.000000) scale(0.100000,-0.100000)"
fill="#000000" stroke="none">
<path d="M915 1942 c-2 -3 -19 -6 -37 -8 -18 -2 -43 -6 -55 -9 -13 -3 -31 -7
-40 -9 -86 -20 -251 -97 -311 -145 -22 -17 -42 -31 -45 -31 -7 0 -66 -51 -91
-79 -12 -13 -36 -39 -54 -57 -17 -19 -32 -38 -32 -42 0 -4 -10 -18 -23 -32
-50 -55 -139 -269 -152 -368 -2 -15 -4 -27 -5 -27 -9 0 -12 -161 -5 -235 3
-30 6 -63 6 -72 0 -10 5 -20 10 -23 5 -4 7 -10 4 -15 -2 -4 4 -33 15 -64 10
-31 16 -56 12 -56 -4 0 -2 -4 4 -8 6 -4 18 -27 28 -52 24 -61 114 -193 178
-261 60 -63 139 -129 157 -129 6 0 11 -4 11 -9 0 -25 207 -113 320 -137 14 -3
44 -9 68 -15 47 -10 211 -13 252 -4 27 6 86 17 110 20 8 1 29 8 45 14 17 7 38
14 48 16 32 7 161 73 218 111 63 43 209 183 209 202 0 6 4 12 9 12 10 0 81
116 109 180 51 115 84 259 85 370 0 49 -10 170 -18 200 -3 14 -8 36 -11 49 -3
13 -11 39 -19 57 -8 19 -12 34 -10 34 7 0 -78 165 -89 172 -6 4 -7 8 -3 8 5 0
2 6 -5 14 -7 8 -22 27 -33 42 -45 64 -130 154 -145 154 -5 0 -10 4 -10 9 0 16
-160 116 -238 149 -39 17 -72 29 -72 25 0 -3 -7 0 -15 7 -8 6 -24 13 -37 15
-22 3 -46 8 -105 21 -34 7 -232 12 -238 6z m235 -112 c42 -11 59 -32 54 -64
-4 -27 -18 -33 -67 -29 -102 8 -189 8 -193 1 -3 -5 -9 -6 -14 -3 -5 3 -27 1
-47 -4 -21 -6 -49 -12 -63 -15 -59 -11 -201 -77 -241 -112 -22 -20 -36 -18
-75 12 -33 26 -34 28 -17 43 84 78 285 160 431 177 31 3 58 7 59 8 6 6 141 -5
173 -14z m400 -189 c0 -8 3 -12 6 -8 16 16 164 -163 210 -255 28 -54 71 -179
81 -234 12 -63 8 -281 -5 -297 -7 -8 -9 -17 -6 -20 3 -3 -4 -35 -16 -71 -18
-55 -24 -64 -38 -57 -9 5 -21 10 -27 11 -36 8 -38 20 -16 95 29 100 33 311 7
354 -5 7 -6 15 -3 17 11 12 -79 214 -96 214 -4 0 -5 5 -2 10 3 6 1 10 -4 10
-6 0 -11 4 -11 10 0 12 -29 47 -97 117 -54 55 -65 87 -37 107 22 16 54 15 54
-3z m-423 -5 c4 -3 16 -6 27 -6 43 0 231 -82 264 -114 15 -15 1 -45 -62 -135
-20 -28 -36 -55 -36 -60 0 -5 -3 -11 -7 -13 -5 -1 -32 -40 -62 -85 -29 -45
-59 -87 -66 -93 -10 -8 -12 25 -12 162 l1 173 -40 1 c-75 0 -69 43 -67 -464 0
-251 1 -466 2 -478 1 -17 7 -20 39 -18 20 1 44 3 52 3 13 1 15 32 14 218 l-1
217 29 -34 c15 -19 28 -38 28 -42 0 -4 13 -26 28 -50 16 -24 46 -70 68 -103
21 -33 42 -63 47 -66 5 -3 8 -9 8 -12 -1 -11 34 -67 42 -67 4 0 7 -7 7 -15 0
-31 29 -26 63 11 l35 38 -59 88 c-33 48 -59 92 -59 98 0 5 -4 10 -10 10 -5 0
-10 7 -10 15 0 8 -4 15 -10 15 -5 0 -10 6 -10 13 0 8 -9 22 -20 32 -11 10 -18
20 -16 22 2 2 -16 34 -40 70 -24 36 -40 71 -36 78 32 51 88 131 97 137 6 5 6
8 0 8 -7 0 -6 3 0 8 6 4 37 48 70 97 33 50 68 99 77 109 18 20 18 20 33 0 58
-74 119 -220 131 -311 12 -93 5 -192 -21 -278 -10 -33 -19 -62 -20 -65 0 -3
-9 -21 -18 -41 l-18 -36 31 -31 c30 -31 31 -32 15 -62 -16 -31 -42 -64 -82
-105 -12 -13 -20 -25 -17 -28 3 -2 -9 -10 -26 -17 -26 -11 -33 -10 -48 3 -9 8
-26 17 -37 18 -21 4 -175 -58 -186 -74 -4 -5 -10 -4 -14 2 -4 8 -11 9 -18 2
-7 -5 -28 -12 -47 -16 -43 -9 -256 -11 -290 -3 -67 16 -117 31 -135 41 -31 17
-44 17 -40 -2 2 -9 -5 -26 -15 -39 -16 -20 -22 -21 -47 -10 -15 6 -31 11 -35
10 -5 -1 -8 5 -8 13 0 8 -7 15 -16 15 -9 0 -56 40 -105 89 -79 80 -89 94 -89
126 0 20 4 34 9 30 6 -3 15 4 21 15 6 11 14 18 18 16 5 -3 -5 21 -20 52 -15
31 -28 64 -28 72 0 9 -6 22 -12 29 -11 11 -10 12 2 6 13 -8 13 -7 1 8 -7 9
-10 17 -7 17 4 0 4 6 -1 13 -19 30 -19 264 0 284 4 3 7 13 7 22 0 24 57 139
86 175 71 88 103 120 149 156 48 36 169 106 190 109 6 1 27 6 47 11 20 6 56
13 80 16 24 4 44 7 45 8 6 5 155 -2 160 -8z m337 -1292 c26 -26 18 -48 -27
-75 -141 -85 -427 -147 -458 -98 -26 41 4 79 64 80 23 0 51 3 62 5 11 3 29 6
40 8 58 9 92 20 109 35 11 9 16 11 12 4 -3 -7 24 3 61 22 75 38 113 43 137 19z"/>
<path d="M640 1445 c-98 -50 -151 -137 -146 -241 1 -35 8 -70 15 -78 8 -9 10
-16 7 -16 -12 0 35 -63 71 -95 19 -17 68 -49 109 -70 162 -86 206 -155 162
-257 -30 -70 -112 -98 -191 -64 -32 13 -97 78 -97 96 0 19 -18 10 -61 -30
l-43 -39 62 -61 c34 -33 62 -57 62 -54 0 4 10 0 23 -9 63 -41 175 -37 254 9
108 63 148 222 84 339 -18 33 -86 105 -100 105 -5 0 -14 7 -21 15 -7 9 -15 13
-18 11 -2 -3 -20 6 -38 21 -19 14 -34 22 -34 19 0 -4 -6 -2 -12 4 -7 6 -32 24
-54 40 -52 37 -75 84 -70 138 8 78 68 133 142 128 53 -4 87 -19 113 -52 23
-29 19 -30 78 20 31 26 29 37 -9 72 -79 72 -203 92 -288 49z"/>
</g>
</svg>
